<?xml version="1.0" standalone="no"?>
<!DOCTYPE svg PUBLIC "-//W3C//DTD SVG 20010904//EN"
 "http://www.w3.org/TR/2001/REC-SVG-20010904/DTD/svg10.dtd">
<svg version="1.0" xmlns="http://www.w3.org/2000/svg"
 width="512.000000pt" height="512.000000pt" viewBox="0 0 512.000000 512.000000"
 preserveAspectRatio="xMidYMid meet">
<metadata>
Created by potrace 1.14, written by Peter Selinger 2001-2017
</metadata>
<g transform="translate(0.000000,512.000000) scale(0.100000,-0.100000)"
fill="#000000" stroke="none">
<path d="M2209 4850 c-599 -106 -1104 -404 -1463 -863 -98 -125 -224 -322
-214 -333 3 -2 55 13 115 35 61 22 168 54 239 72 l128 32 141 142 c188 192
316 285 541 398 362 181 797 244 1204 174 332 -58 604 -176 875 -381 97 -73
295 -270 350 -349 39 -55 42 -57 145 -93 128 -45 300 -117 358 -150 23 -14 42
-20 42 -14 0 36 -145 286 -243 417 -373 500 -918 825 -1535 918 -147 22 -544
19 -683 -5z"/>
<path d="M2070 3853 c-218 -10 -727 -74 -899 -113 -525 -117 -806 -223 -1078
-404 -51 -33 -93 -66 -93 -72 0 -6 55 12 122 41 299 127 709 227 1128 274 340
38 448 44 780 44 333 0 436 -5 780 -44 720 -81 1339 -301 1591 -565 69 -74
103 -126 129 -203 47 -142 6 -273 -129 -414 -117 -122 -251 -205 -497 -308
-78 -32 -165 -64 -193 -70 -47 -10 -70 -24 -58 -35 14 -14 472 105 657 171
395 140 678 337 776 541 31 66 34 78 34 167 0 143 -44 235 -171 358 -229 223
-638 396 -1239 524 -165 35 -588 88 -835 105 -135 9 -642 11 -805 3z"/>
<path d="M2115 3484 c-17 -60 -83 -291 -161 -559 -23 -82 -64 -222 -89 -310
-26 -88 -66 -227 -90 -310 -90 -313 -134 -465 -180 -625 -26 -91 -70 -241 -97
-335 -55 -187 -104 -357 -173 -600 -62 -215 -135 -462 -142 -480 -3 -9 1 -15
9 -15 12 0 309 135 473 215 28 14 102 49 165 78 l115 53 32 110 c40 133 115
392 178 614 26 91 67 230 90 310 23 80 63 217 88 305 26 88 63 216 83 285 20
69 44 154 54 190 10 36 48 169 85 295 206 710 228 786 220 793 -9 10 -267 31
-457 38 l-187 7 -16 -59z"/>
<path d="M669 3399 c-47 -11 -132 -34 -189 -52 l-103 -32 -29 -100 c-77 -268
-105 -532 -88 -809 40 -631 333 -1206 824 -1620 62 -53 118 -96 123 -96 11 0
46 105 84 251 l22 86 -107 104 c-362 348 -564 778 -607 1292 -25 288 37 655
157 925 13 30 24 58 24 63 0 11 -7 11 -111 -12z"/>
<path d="M4363 2549 c-28 -16 -111 -54 -185 -83 -424 -170 -973 -276 -1561
-303 l-147 -6 -6 -26 c-3 -14 -15 -55 -25 -90 -10 -35 -19 -67 -19 -73 0 -6
50 -7 138 -3 582 27 1298 222 1677 456 82 51 195 138 195 150 0 14 -12 10 -67
-22z"/>
<path d="M4795 2309 c-38 -27 -119 -74 -180 -105 -60 -31 -112 -58 -113 -60
-2 -1 -14 -45 -28 -97 -60 -238 -187 -492 -361 -721 -65 -85 -242 -259 -338
-332 -270 -204 -539 -322 -872 -380 -220 -38 -459 -38 -674 0 -81 14 -154 28
-163 32 -12 5 -19 -7 -32 -53 l-16 -59 -87 -41 c-47 -23 -107 -51 -133 -62
-27 -11 -48 -24 -48 -29 0 -24 258 -97 466 -132 147 -25 524 -28 676 -5 536
80 1019 337 1381 733 278 304 462 656 556 1064 21 88 46 270 40 286 -2 5 -35
-13 -74 -39z"/>
</g>
</svg>
